<svg width="15" height="14" viewBox="0 0 15 14" fill="none" xmlns="http://www.w3.org/2000/svg">
<path d="M10.3665 7.66659C10.8665 7.66659 11.3065 7.39325 11.5332 6.97992L13.9198 2.65325C14.1665 2.21325 13.8465 1.66659 13.3398 1.66659H3.47317L2.8465 0.333252H0.666504V1.66659H1.99984L4.39984 6.72659L3.49984 8.35325C3.01317 9.24659 3.65317 10.3333 4.6665 10.3333H12.6665V8.99992H4.6665L5.39984 7.66659H10.3665ZM4.1065 2.99992H12.2065L10.3665 6.33325H5.6865L4.1065 2.99992ZM4.6665 10.9999C3.93317 10.9999 3.33984 11.5999 3.33984 12.3333C3.33984 13.0666 3.93317 13.6666 4.6665 13.6666C5.39984 13.6666 5.99984 13.0666 5.99984 12.3333C5.99984 11.5999 5.39984 10.9999 4.6665 10.9999ZM11.3332 10.9999C10.5998 10.9999 10.0065 11.5999 10.0065 12.3333C10.0065 13.0666 10.5998 13.6666 11.3332 13.6666C12.0665 13.6666 12.6665 13.0666 12.6665 12.3333C12.6665 11.5999 12.0665 10.9999 11.3332 10.9999Z" fill="#1071FF"/>
</svg>
