<svg width="25" height="24" viewBox="0 0 25 24" fill="none" xmlns="http://www.w3.org/2000/svg">
<g clip-path="url(#clip0_317_4301)">
<path d="M12.5 2L7 11H18L12.5 2ZM12.5 5.84L14.43 9H10.56L12.5 5.84ZM18 13C15.51 13 13.5 15.01 13.5 17.5C13.5 19.99 15.51 22 18 22C20.49 22 22.5 19.99 22.5 17.5C22.5 15.01 20.49 13 18 13ZM18 20C16.62 20 15.5 18.88 15.5 17.5C15.5 16.12 16.62 15 18 15C19.38 15 20.5 16.12 20.5 17.5C20.5 18.88 19.38 20 18 20ZM3.5 21.5H11.5V13.5H3.5V21.5ZM5.5 15.5H9.5V19.5H5.5V15.5Z" fill="#1071FF"/>
</g>
<defs>
<clipPath id="clip0_317_4301">
<rect width="24" height="24" fill="white" transform="translate(0.5)"/>
</clipPath>
</defs>
</svg>
