<svg width="238" height="70" viewBox="0 0 238 70" fill="none" xmlns="http://www.w3.org/2000/svg">
<path d="M71.5 26.5L58 1H18.5L1 34L18.5 69.5H58L97.5 1H136.5L152 26.5M85.5 47.5L97.5 69.5H136.5L180.5 1H219L237 34L219 69.5H180.5L165.5 47.5" stroke="url(#paint0_linear_317_4635)"/>
<path d="M46.0446 47.066V50H31.9146V47.066H37.3146V30.83C37.3146 30.254 37.3326 29.666 37.3686 29.066L33.2106 32.576C33.0306 32.72 32.8446 32.816 32.6526 32.864C32.4726 32.9 32.2986 32.9 32.1306 32.864C31.9746 32.828 31.8306 32.774 31.6986 32.702C31.5786 32.618 31.4826 32.528 31.4106 32.432L30.2046 30.74L38.0166 24.026H41.1666V47.066H46.0446Z" fill="#1071FF"/>
<path d="M126.271 45.346C126.691 45.346 127.021 45.472 127.261 45.724C127.501 45.964 127.621 46.276 127.621 46.66V49H110.089V47.686C110.089 47.422 110.143 47.146 110.251 46.858C110.359 46.57 110.533 46.306 110.773 46.066L118.837 37.984C119.521 37.3 120.127 36.646 120.655 36.022C121.195 35.398 121.651 34.774 122.023 34.15C122.407 33.526 122.695 32.896 122.887 32.26C123.091 31.612 123.193 30.934 123.193 30.226C123.193 29.542 123.085 28.942 122.869 28.426C122.665 27.898 122.377 27.466 122.005 27.13C121.645 26.782 121.207 26.524 120.691 26.356C120.187 26.176 119.629 26.086 119.017 26.086C118.429 26.086 117.883 26.17 117.379 26.338C116.887 26.506 116.443 26.74 116.047 27.04C115.663 27.34 115.339 27.7 115.075 28.12C114.823 28.528 114.637 28.978 114.517 29.47C114.337 29.962 114.103 30.292 113.815 30.46C113.539 30.628 113.131 30.664 112.591 30.568L110.557 30.208C110.737 28.984 111.073 27.91 111.565 26.986C112.069 26.062 112.699 25.294 113.455 24.682C114.211 24.058 115.075 23.59 116.047 23.278C117.031 22.954 118.093 22.792 119.233 22.792C120.385 22.792 121.441 22.966 122.401 23.314C123.373 23.65 124.207 24.136 124.903 24.772C125.611 25.396 126.163 26.158 126.559 27.058C126.955 27.958 127.153 28.972 127.153 30.1C127.153 31.06 127.009 31.948 126.721 32.764C126.445 33.58 126.067 34.36 125.587 35.104C125.107 35.848 124.543 36.574 123.895 37.282C123.259 37.978 122.587 38.686 121.879 39.406L115.615 45.814C116.131 45.67 116.647 45.556 117.163 45.472C117.691 45.388 118.189 45.346 118.657 45.346H126.271Z" fill="#1071FF"/>
<path d="M191.683 29.208C191.863 27.984 192.199 26.91 192.691 25.986C193.195 25.062 193.825 24.294 194.581 23.682C195.337 23.058 196.201 22.59 197.173 22.278C198.157 21.954 199.219 21.792 200.359 21.792C201.511 21.792 202.555 21.96 203.491 22.296C204.439 22.62 205.249 23.076 205.921 23.664C206.605 24.252 207.127 24.954 207.487 25.77C207.859 26.586 208.045 27.48 208.045 28.452C208.045 29.28 207.943 30.012 207.739 30.648C207.547 31.272 207.265 31.824 206.893 32.304C206.533 32.784 206.089 33.186 205.561 33.51C205.033 33.834 204.439 34.104 203.779 34.32C205.387 34.788 206.593 35.538 207.397 36.57C208.201 37.59 208.603 38.874 208.603 40.422C208.603 41.67 208.369 42.78 207.901 43.752C207.433 44.724 206.797 45.546 205.993 46.218C205.201 46.89 204.271 47.406 203.203 47.766C202.147 48.114 201.025 48.288 199.837 48.288C198.505 48.288 197.353 48.132 196.381 47.82C195.409 47.496 194.569 47.04 193.861 46.452C193.165 45.852 192.583 45.132 192.115 44.292C191.647 43.452 191.251 42.51 190.927 41.466L192.601 40.764C193.045 40.572 193.465 40.518 193.861 40.602C194.269 40.686 194.563 40.908 194.743 41.268C194.935 41.652 195.151 42.066 195.391 42.51C195.631 42.942 195.937 43.344 196.309 43.716C196.693 44.076 197.161 44.382 197.713 44.634C198.277 44.874 198.967 44.994 199.783 44.994C200.611 44.994 201.331 44.862 201.943 44.598C202.567 44.322 203.083 43.974 203.491 43.554C203.911 43.122 204.223 42.642 204.427 42.114C204.631 41.586 204.733 41.064 204.733 40.548C204.733 39.9 204.655 39.306 204.499 38.766C204.343 38.214 204.037 37.746 203.581 37.362C203.137 36.978 202.501 36.678 201.673 36.462C200.857 36.234 199.783 36.12 198.451 36.12V33.33C199.543 33.318 200.461 33.21 201.205 33.006C201.961 32.79 202.561 32.502 203.005 32.142C203.461 31.77 203.785 31.326 203.977 30.81C204.181 30.294 204.283 29.73 204.283 29.118C204.283 28.458 204.181 27.876 203.977 27.372C203.773 26.868 203.485 26.448 203.113 26.112C202.753 25.764 202.321 25.506 201.817 25.338C201.313 25.17 200.755 25.086 200.143 25.086C199.555 25.086 199.009 25.17 198.505 25.338C198.013 25.506 197.569 25.74 197.173 26.04C196.789 26.34 196.465 26.7 196.201 27.12C195.937 27.528 195.745 27.978 195.625 28.47C195.457 28.962 195.229 29.292 194.941 29.46C194.665 29.628 194.257 29.664 193.717 29.568L191.683 29.208Z" fill="#1071FF"/>
<defs>
<linearGradient id="paint0_linear_317_4635" x1="1.5" y1="35.5" x2="234.5" y2="35.5" gradientUnits="userSpaceOnUse">
<stop stop-color="#1071FF"/>
<stop offset="1" stop-color="#FF4E00"/>
</linearGradient>
</defs>
</svg>
