<svg width="62" height="39" viewBox="0 0 62 39" fill="none" xmlns="http://www.w3.org/2000/svg">
<path d="M11.6257 37.7C14.4791 37.7 16.7923 35.3719 16.7923 32.5C16.7923 29.6282 14.4791 27.3 11.6257 27.3C8.77218 27.3 6.45898 29.6282 6.45898 32.5C6.45898 35.3719 8.77218 37.7 11.6257 37.7Z" stroke="#1071FF" stroke-miterlimit="10" stroke-linecap="round" stroke-linejoin="round"/>
<path d="M45.2087 37.7C48.0621 37.7 50.3753 35.3719 50.3753 32.5C50.3753 29.6282 48.0621 27.3 45.2087 27.3C42.3552 27.3 40.042 29.6282 40.042 32.5C40.042 35.3719 42.3552 37.7 45.2087 37.7Z" stroke="#1071FF" stroke-miterlimit="10" stroke-linecap="round" stroke-linejoin="round"/>
<path d="M55.5423 11.7H45.209V27.3C48.0507 27.3 50.3757 29.64 50.3757 32.5H58.1257C59.5465 32.5 60.709 31.33 60.709 29.9V16.9C60.709 14.04 58.384 11.7 55.5423 11.7Z" stroke="#1071FF" stroke-miterlimit="10" stroke-linecap="round" stroke-linejoin="round"/>
<path d="M45.2087 27.3001V3.90005C45.2087 2.47005 44.0462 1.30005 42.6253 1.30005H3.87533C2.45449 1.30005 1.29199 2.47005 1.29199 3.90005V29.9001C1.29199 31.3301 2.45449 32.5001 3.87533 32.5001C3.87533 32.5001 4.77949 32.5001 6.45866 32.5001C6.45866 29.6401 8.78366 27.3001 11.6253 27.3001C14.467 27.3001 16.792 29.6401 16.792 32.5001C24.6712 32.5001 34.2295 32.5001 40.042 32.5001C40.042 29.6401 42.367 27.3001 45.2087 27.3001Z" stroke="#1071FF" stroke-miterlimit="10" stroke-linecap="round" stroke-linejoin="round"/>
<path d="M56.834 15.6001H49.084V18.2001H56.834V15.6001Z" stroke="#1071FF" stroke-miterlimit="10" stroke-linecap="round" stroke-linejoin="round"/>
</svg>
