<svg width="34" height="34" viewBox="0 0 34 34" fill="none" xmlns="http://www.w3.org/2000/svg">
<g clip-path="url(#clip0_317_4664)">
<path d="M29.0152 29.0344C35.6541 22.3955 35.6541 11.6318 29.0152 4.99297C22.3764 -1.64588 11.6127 -1.64588 4.97382 4.99297C-1.66502 11.6318 -1.66502 22.3955 4.97382 29.0344C11.6127 35.6732 22.3764 35.6732 29.0152 29.0344Z" fill="#1071FF"/>
<path d="M14.4501 14.663C15.0168 14.663 15.4418 14.8046 15.6543 15.0171C15.8668 15.2296 16.0085 15.6546 16.0085 16.1505C16.0085 16.4338 16.0085 16.6463 15.9376 17.0005C15.8668 17.2838 15.796 17.5671 15.7251 17.9213L14.8043 21.1796C14.7335 21.463 14.6626 21.8171 14.6626 22.0296C14.6626 22.313 14.5918 22.5255 14.5918 22.8088C14.5918 23.3755 14.8043 23.8005 15.2293 24.2255C15.6543 24.5796 16.2918 24.7921 17.071 24.7921C17.6376 24.7921 18.0626 24.7213 18.4876 24.5796C18.9126 24.438 19.4085 24.2255 20.046 24.013L20.1168 23.8005C19.8335 23.8713 19.5501 23.9421 19.2668 23.9421C18.7001 23.9421 18.2751 23.8713 18.0626 23.6588C17.7793 23.4463 17.6376 23.0213 17.6376 22.5255C17.6376 22.313 17.6376 22.1005 17.7085 21.6755C17.7793 21.3213 17.8501 21.038 17.921 20.7546L18.8418 17.4963C18.9126 17.213 18.9835 16.9296 18.9835 16.5755C19.0543 16.1505 19.0543 15.938 19.0543 15.8671C19.0543 15.3005 18.8418 14.8046 18.4876 14.4505C18.0626 14.0963 17.496 13.8838 16.646 13.8838C16.221 13.8838 15.7251 13.9546 15.1585 14.0963C14.6626 14.238 14.1668 14.4505 13.6001 14.663L13.5293 14.8755C13.5293 14.8755 13.5293 14.8755 13.6001 14.8755C13.8835 14.7338 14.1668 14.663 14.4501 14.663Z" fill="white"/>
<path d="M18.6298 9.2793C18.1339 9.2793 17.7089 9.42096 17.3548 9.77513C17.0006 10.1293 16.7881 10.4835 16.7881 10.9793C16.7881 11.4751 16.9298 11.8293 17.3548 12.1835C17.7089 12.5376 18.1339 12.6793 18.6298 12.6793C19.1256 12.6793 19.5506 12.5376 19.9048 12.1835C20.2589 11.8293 20.4006 11.4751 20.4006 10.9793C20.4006 10.4835 20.2589 10.1293 19.9048 9.77513C19.5506 9.42096 19.1256 9.2793 18.6298 9.2793Z" fill="white"/>
</g>
<defs>
<clipPath id="clip0_317_4664">
<rect width="34" height="34" fill="white"/>
</clipPath>
</defs>
</svg>
