<svg width="32" height="49" viewBox="0 0 32 49" fill="none" xmlns="http://www.w3.org/2000/svg">
<path d="M28.3706 24.7074H26.4699L22.0809 7.01324H22.2537C23.9125 7.01324 25.2603 5.66544 25.2603 4.00662C25.2603 2.34779 23.9125 1 22.2537 1H10.089C8.43015 1 7.08235 2.34779 7.08235 4.00662C7.08235 5.66544 8.43015 7.01324 10.089 7.01324H10.2618L5.87279 24.7074H3.97206C2.34779 24.7074 1 26.0206 1 27.6449V29.511C1 31.1353 2.31324 32.4485 3.97206 32.4485H28.336C29.9603 32.4485 31.3081 31.1353 31.3081 29.511V27.6449C31.3426 26.0206 29.9949 24.7074 28.3706 24.7074Z" stroke="#1071FF" stroke-miterlimit="10" stroke-linecap="round" stroke-linejoin="round"/>
<path d="M16.1719 36.1809V48" stroke="#1071FF" stroke-miterlimit="10" stroke-linecap="round" stroke-linejoin="round"/>
<path d="M5.87305 24.7073H26.09" stroke="#1071FF" stroke-miterlimit="10" stroke-linecap="round" stroke-linejoin="round"/>
<path d="M10.0889 7.01318H22.2881" stroke="#1071FF" stroke-miterlimit="10" stroke-linecap="round" stroke-linejoin="round"/>
</svg>
