<svg width="57" height="59" viewBox="0 0 57 59" fill="none" xmlns="http://www.w3.org/2000/svg">
<path d="M27.8382 56H6V43.9485C6 38.5699 10.125 32.0993 17.9301 30.5625C21.6507 37.1544 27.8382 56 27.8382 56Z" stroke="#1071FF" stroke-miterlimit="10" stroke-linecap="round" stroke-linejoin="round"/>
<path d="M28.9297 26.2353C35.0048 26.2353 39.9297 20.5862 39.9297 13.6176C39.9297 6.64911 35.0048 1 28.9297 1C22.8546 1 17.9297 6.64911 17.9297 13.6176C17.9297 20.5862 22.8546 26.2353 28.9297 26.2353Z" stroke="#1071FF" stroke-miterlimit="10" stroke-linecap="round" stroke-linejoin="round"/>
<path d="M32.2865 42.3712L28.9299 44.8786L25.5732 42.3712L26.6652 32.5845H31.1946L32.2865 42.3712Z" stroke="#1071FF" stroke-miterlimit="10" stroke-linecap="round" stroke-linejoin="round"/>
<path d="M18.6172 31.8564C18.6172 31.8564 22.2164 30.077 23.7937 24.9814" stroke="#1071FF" stroke-miterlimit="10" stroke-linecap="round" stroke-linejoin="round"/>
<path d="M30.0225 56H51.8607V43.9485C51.8607 38.5699 47.7357 32.0993 39.9305 30.5625C36.21 37.1544 30.0225 56 30.0225 56Z" stroke="#1071FF" stroke-miterlimit="10" stroke-linecap="round" stroke-linejoin="round"/>
<path d="M39.2429 31.8564C39.2429 31.8564 35.6436 30.077 34.0664 24.9814" stroke="#1071FF" stroke-miterlimit="10" stroke-linecap="round" stroke-linejoin="round"/>
<path d="M22.7021 28.4189L28.9301 32.5844L35.0771 28.4189" stroke="#1071FF" stroke-miterlimit="10" stroke-linecap="round" stroke-linejoin="round"/>
</svg>
