<svg width="16" height="17" viewBox="0 0 16 17" fill="none" xmlns="http://www.w3.org/2000/svg">
<g clip-path="url(#clip0_312_8638)">
<path d="M7.99967 1.82715C4.31967 1.82715 1.33301 4.81382 1.33301 8.49382C1.33301 12.1738 4.31967 15.1605 7.99967 15.1605C11.6797 15.1605 14.6663 12.1738 14.6663 8.49382C14.6663 4.81382 11.6797 1.82715 7.99967 1.82715ZM7.99967 13.8271C5.05967 13.8271 2.66634 11.4338 2.66634 8.49382C2.66634 5.55382 5.05967 3.16048 7.99967 3.16048C10.9397 3.16048 13.333 5.55382 13.333 8.49382C13.333 11.4338 10.9397 13.8271 7.99967 13.8271ZM11.0597 5.54715L6.66634 9.94048L4.93967 8.22048L3.99967 9.16048L6.66634 11.8271L11.9997 6.49382L11.0597 5.54715Z" fill="#00893A"/>
</g>
<defs>
<clipPath id="clip0_312_8638">
<rect width="16" height="16" fill="white" transform="translate(0 0.494141)"/>
</clipPath>
</defs>
</svg>
