<svg width="18" height="17" viewBox="0 0 18 17" fill="none" xmlns="http://www.w3.org/2000/svg">
<path d="M17.889 6.54634L11.4979 5.99523L9.00016 0.110785L6.50238 6.00412L0.111274 6.54634L4.96461 10.7508L3.50683 16.9997L9.00016 13.6841L14.4935 16.9997L13.0446 10.7508L17.889 6.54634ZM9.00016 12.0219L5.65794 14.0397L6.54683 10.2352L3.59572 7.67523L7.48905 7.33745L9.00016 3.75523L10.5202 7.34634L14.4135 7.68412L11.4624 10.2441L12.3513 14.0486L9.00016 12.0219Z" fill="#1071FF"/>
<rect x="8" y="4" width="2" height="9" fill="#1071FF"/>
<rect x="7" y="6" width="1" height="8" fill="#1071FF"/>
<rect x="3" y="7" width="5" height="2" fill="#1071FF"/>
<rect x="5" y="9" width="2" height="5" fill="#1071FF"/>
<rect x="8" y="3" width="2" height="1" fill="#1071FF"/>
<rect x="9" y="6" width="2" height="7" fill="#1071FF"/>
<rect x="10" y="7" width="5" height="2" fill="#1071FF"/>
<rect x="10" y="9" width="3" height="5" fill="#1071FF"/>
</svg>
